<?xml version="1.0" standalone="no"?>
<!DOCTYPE svg PUBLIC "-//W3C//DTD SVG 20010904//EN"
 "http://www.w3.org/TR/2001/REC-SVG-20010904/DTD/svg10.dtd">
<svg version="1.0" xmlns="http://www.w3.org/2000/svg"
 width="1280.000000pt" height="1276.000000pt" viewBox="0 0 1280.000000 1276.000000"
 preserveAspectRatio="xMidYMid meet">
<metadata>
Created by potrace 1.15, written by Peter Selinger 2001-2017
</metadata>
<g transform="translate(0.000000,1276.000000) scale(0.100000,-0.100000)"
fill="#000000" stroke="none">
<path d="M5870 12358 c0 -222 5 -952 10 -1623 5 -671 12 -1698 16 -2283 l7
-1062 320 2 320 3 -2 455 c-2 551 -18 2931 -27 4078 l-7 832 -318 0 -319 0 0
-402z"/>
<path d="M8181 8700 c-565 -5 -574 -5 -576 -25 -2 -11 -6 -137 -9 -279 l-7
-259 525 7 526 8 0 -406 0 -406 290 0 290 0 0 398 c0 219 -3 528 -7 685 l-6
287 -226 -2 c-124 -2 -484 -5 -800 -8z"/>
<path d="M3598 8673 l-218 -3 0 -253 c0 -138 3 -444 7 -679 l6 -428 283 0 283
0 -6 405 -6 405 384 0 c211 0 442 3 513 7 l129 6 -7 176 c-3 97 -9 220 -13
274 l-6 97 -566 -2 c-311 -2 -664 -4 -783 -5z"/>
<path d="M10630 6559 c-624 -4 -1564 -11 -2087 -15 l-953 -6 0 -304 0 -304
318 0 c400 0 3302 18 4210 26 l682 6 0 304 0 304 -517 -2 c-285 -1 -1029 -5
-1653 -9z"/>
<path d="M2150 6518 c-740 -4 -1526 -11 -1747 -14 l-403 -6 0 -305 0 -305 773
6 c1123 10 3531 26 3895 26 l312 0 0 305 0 305 -742 -2 c-409 -1 -1348 -5
-2088 -10z"/>
<path d="M8649 5103 c0 -5 0 -176 1 -382 l1 -373 -418 6 c-230 4 -462 9 -515
12 l-98 6 0 -281 0 -281 588 0 c323 0 685 3 805 7 l217 6 0 644 0 643 -290 0
c-159 0 -290 -3 -291 -7z"/>
<path d="M3408 4423 c2 -351 5 -639 6 -640 1 -1 352 1 779 4 l777 6 0 278 0
277 -122 -5 c-307 -12 -870 -28 -874 -24 -2 2 -4 170 -4 373 l0 368 -283 0
-283 0 4 -637z"/>
<path d="M5930 4488 c0 -441 19 -3375 26 -3975 l6 -513 320 0 320 0 -6 928
c-4 510 -11 1496 -16 2192 -6 696 -10 1356 -10 1468 l0 202 -320 0 -320 0 0
-302z"/>
</g>
</svg>
